<svg xmlns="http://www.w3.org/2000/svg" xmlns:xlink="http://www.w3.org/1999/xlink" width="400" zoomAndPan="magnify" viewBox="0 0 300 299.999988" height="400" preserveAspectRatio="xMidYMid meet" version="1.2"><defs><clipPath id="63f39ba1f7"><path d="M 30 38.398438 L 270 38.398438 L 270 270 L 30 270 Z M 30 38.398438 "/></clipPath><filter x="0%" y="0%" width="100%" filterUnits="objectBoundingBox" id="0f42d069c9" height="100%"><feColorMatrix values="0 0 0 0 1 0 0 0 0 1 0 0 0 0 1 0 0 0 1 0" type="matrix" in="SourceGraphic"/></filter><clipPath id="719a27d89d"><path d="M 0.679688 0.078125 L 76 0.078125 L 76 30.558594 L 0.679688 30.558594 Z M 0.679688 0.078125 "/></clipPath><clipPath id="a4a705eca9"><rect x="0" width="77" y="0" height="31"/></clipPath><clipPath id="0d9534c25e"><path d="M 0.121094 0.519531 L 2 0.519531 L 2 7.480469 L 0.121094 7.480469 Z M 0.121094 0.519531 "/></clipPath><clipPath id="588bf2c4a8"><rect x="0" width="3" y="0" height="8"/></clipPath><clipPath id="9a9e2e6fc7"><path d="M 0.078125 0.121094 L 4.640625 0.121094 L 4.640625 34.441406 L 0.078125 34.441406 Z M 0.078125 0.121094 "/></clipPath><clipPath id="c9ef80f33c"><rect x="0" width="5" y="0" height="35"/></clipPath><clipPath id="ea6ae38ce0"><path d="M 0.558594 0.679688 L 23.839844 0.679688 L 23.839844 35 L 0.558594 35 Z M 0.558594 0.679688 "/></clipPath><clipPath id="b619a0a94e"><rect x="0" width="24" y="0" height="35"/></clipPath><clipPath id="b02771cabb"><path d="M 0.558594 0.121094 L 23.839844 0.121094 L 23.839844 34.441406 L 0.558594 34.441406 Z M 0.558594 0.121094 "/></clipPath><clipPath id="56a2d6c02a"><rect x="0" width="24" y="0" height="35"/></clipPath><clipPath id="4b7eb79045"><path d="M 0.078125 0.679688 L 4.640625 0.679688 L 4.640625 35 L 0.078125 35 Z M 0.078125 0.679688 "/></clipPath><clipPath id="7271ae964b"><rect x="0" width="5" y="0" height="35"/></clipPath><clipPath id="fa8e19cd63"><path d="M 0.121094 1 L 2 1 L 2 7.601562 L 0.121094 7.601562 Z M 0.121094 1 "/></clipPath><clipPath id="8cb79d5c3b"><rect x="0" width="3" y="0" height="8"/></clipPath><clipPath id="87e88c6fb5"><path d="M 1 1 L 56.960938 1 L 56.960938 16.558594 L 1 16.558594 Z M 1 1 "/></clipPath><clipPath id="0896d4b000"><rect x="0" width="57" y="0" height="17"/></clipPath><clipPath id="25f22f7d0e"><path d="M 0 0.921875 L 26.398438 0.921875 L 26.398438 20.601562 L 0 20.601562 Z M 0 0.921875 "/></clipPath><clipPath id="bd5904ddce"><rect x="0" width="27" y="0" height="21"/></clipPath></defs><g id="a44883de79"><g clip-rule="nonzero" clip-path="url(#63f39ba1f7)"><path style=" stroke:none;fill-rule:nonzero;fill:#231f20;fill-opacity:1;" d="M 262.136719 38.40625 L 262.136719 38.441406 L 149.929688 38.441406 L 149.929688 38.433594 L 120.546875 38.433594 L 120.546875 38.441406 L 37.863281 38.441406 L 37.863281 38.40625 L 30 38.40625 L 30 269.984375 L 270 269.984375 L 270 38.40625 Z M 262.136719 38.40625 "/></g><path style=" stroke:none;fill-rule:nonzero;fill:#231f20;fill-opacity:1;" d="M 268.714844 268.703125 L 31.285156 268.703125 L 31.285156 39.691406 L 36.578125 39.691406 L 36.578125 39.726562 L 42.230469 39.726562 L 42.230469 45.019531 L 36.578125 45.019531 L 36.578125 143.46875 L 73.140625 143.46875 L 73.140625 148.765625 L 36.578125 148.765625 L 36.578125 263.40625 L 113.972656 263.40625 L 113.972656 147.671875 L 105.320312 147.671875 L 105.320312 142.375 L 119.265625 142.375 L 119.265625 263.40625 L 263.421875 263.40625 L 263.421875 45.019531 L 240.082031 45.019531 L 240.082031 39.726562 L 263.421875 39.726562 L 263.421875 39.691406 L 268.714844 39.691406 Z M 268.714844 268.703125 "/><g mask="url(#17aceed853)" transform="matrix(1,0,0,1,37,46)"><g clip-path="url(#a4a705eca9)"><g clip-rule="nonzero" clip-path="url(#719a27d89d)"><path style=" stroke:none;fill-rule:nonzero;fill:#faf9f0;fill-opacity:1;" d="M 75.683594 0.304688 L 75.683594 30.382812 C 72.222656 30.382812 55.273438 30.355469 38.316406 30.347656 C 27.273438 30.347656 18.476562 30.347656 12.160156 30.347656 C 4.886719 30.347656 2.019531 30.347656 0.863281 30.378906 L 0.863281 0.296875 Z M 75.683594 0.304688 "/></g></g><mask id="17aceed853"><g filter="url(#0f42d069c9)"><rect x="0" width="300" y="0" height="299.999988" style="fill:#000000;fill-opacity:0.89;stroke:none;"/></g></mask></g><path style=" stroke:none;fill-rule:nonzero;fill:#faf9f0;fill-opacity:1;" d="M 74.046875 179.527344 C 75.050781 179.527344 76.050781 179.480469 77.050781 179.382812 C 78.050781 179.285156 79.042969 179.136719 80.027344 178.945312 C 81.011719 178.75 81.984375 178.507812 82.945312 178.21875 C 83.90625 177.925781 84.851562 177.589844 85.777344 177.210938 C 86.707031 176.828125 87.613281 176.402344 88.5 175.929688 C 89.386719 175.460938 90.246094 174.945312 91.082031 174.390625 C 91.917969 173.835938 92.726562 173.242188 93.503906 172.605469 C 94.28125 171.972656 95.027344 171.300781 95.738281 170.59375 C 96.449219 169.886719 97.125 169.148438 97.765625 168.375 C 98.40625 167.601562 99.007812 166.800781 99.566406 165.96875 C 100.128906 165.136719 100.648438 164.277344 101.125 163.394531 C 101.601562 162.511719 102.035156 161.609375 102.425781 160.683594 C 102.8125 159.757812 103.15625 158.816406 103.453125 157.855469 C 103.75 156.898438 103.996094 155.925781 104.199219 154.945312 C 104.402344 153.960938 104.554688 152.96875 104.660156 151.972656 C 104.761719 150.972656 104.820312 149.972656 104.824219 148.96875 L 112.683594 148.96875 L 112.683594 262.121094 L 37.863281 262.121094 L 37.863281 150.046875 L 73.664062 150.046875 L 73.664062 179.527344 Z M 74.046875 179.527344 "/><path style=" stroke:none;fill-rule:nonzero;fill:#231f20;fill-opacity:1;" d="M 151.214844 39.726562 L 179.578125 39.726562 L 179.578125 45.019531 L 151.214844 45.019531 Z M 151.214844 39.726562 "/><path style=" stroke:none;fill-rule:nonzero;fill:#faf9f0;fill-opacity:1;" d="M 120.558594 39.714844 L 149.941406 39.714844 L 149.941406 46.136719 C 149.949219 48.121094 149.761719 50.085938 149.378906 52.035156 C 148.996094 53.980469 148.425781 55.871094 147.667969 57.703125 C 146.90625 59.539062 145.976562 61.277344 144.871094 62.925781 C 143.765625 64.574219 142.511719 66.097656 141.105469 67.496094 C 139.753906 68.851562 138.285156 70.066406 136.699219 71.136719 C 135.117188 72.210938 133.441406 73.121094 131.683594 73.871094 C 129.921875 74.621094 128.105469 75.195312 126.234375 75.59375 C 124.363281 75.996094 122.472656 76.210938 120.558594 76.246094 Z M 120.558594 39.714844 "/><path style=" stroke:none;fill-rule:nonzero;fill:#faf9f0;fill-opacity:1;" d="M 120.558594 77.019531 C 122.523438 76.984375 124.46875 76.765625 126.386719 76.355469 C 128.308594 75.949219 130.175781 75.359375 131.984375 74.59375 C 133.789062 73.824219 135.507812 72.890625 137.136719 71.792969 C 138.765625 70.691406 140.273438 69.449219 141.660156 68.058594 C 143.089844 66.632812 144.371094 65.082031 145.496094 63.402344 C 146.621094 61.726562 147.570312 59.953125 148.34375 58.085938 C 149.121094 56.222656 149.707031 54.300781 150.101562 52.320312 C 150.496094 50.335938 150.695312 48.335938 150.699219 46.316406 L 262.136719 46.316406 L 262.136719 262.121094 L 120.558594 262.121094 L 120.558594 141.089844 L 104.046875 141.089844 L 104.046875 148.953125 L 104.066406 148.953125 C 104.0625 149.925781 104.007812 150.890625 103.90625 151.855469 C 103.804688 152.820312 103.660156 153.78125 103.464844 154.730469 C 103.273438 155.683594 103.03125 156.621094 102.75 157.546875 C 102.464844 158.476562 102.136719 159.386719 101.761719 160.285156 C 101.390625 161.179688 100.972656 162.054688 100.515625 162.910156 C 100.058594 163.765625 99.558594 164.597656 99.019531 165.402344 C 98.480469 166.210938 97.90625 166.988281 97.289062 167.742188 C 96.675781 168.492188 96.027344 169.210938 95.34375 169.898438 C 94.65625 170.585938 93.941406 171.242188 93.195312 171.859375 C 92.445312 172.476562 91.671875 173.058594 90.867188 173.601562 C 90.0625 174.144531 89.234375 174.648438 88.382812 175.109375 C 87.527344 175.574219 86.65625 175.992188 85.761719 176.371094 C 84.867188 176.75 83.957031 177.085938 83.03125 177.375 C 82.105469 177.664062 81.167969 177.90625 80.21875 178.105469 C 79.269531 178.304688 78.3125 178.457031 77.347656 178.5625 C 76.382812 178.667969 75.414062 178.726562 74.445312 178.738281 L 74.445312 142.1875 L 37.863281 142.1875 L 37.863281 76.882812 C 44.671875 76.808594 105.726562 76.882812 112.683594 76.882812 L 112.683594 108.007812 L 120.558594 108.007812 Z M 120.558594 77.019531 "/><path style=" stroke:none;fill-rule:nonzero;fill:#231f20;fill-opacity:1;" d="M 83.078125 39.726562 L 119.265625 39.726562 L 119.265625 106.722656 L 113.972656 106.722656 L 113.972656 45.019531 L 83.078125 45.019531 Z M 83.078125 39.726562 "/><path style=" stroke:none;fill-rule:nonzero;fill:#231f20;fill-opacity:1;" d="M 43.695312 48.871094 L 75.574219 48.871094 C 75.851562 48.871094 76.125 48.898438 76.394531 48.953125 C 76.667969 49.003906 76.929688 49.085938 77.1875 49.191406 C 77.441406 49.296875 77.683594 49.425781 77.914062 49.582031 C 78.144531 49.734375 78.355469 49.910156 78.550781 50.105469 C 78.746094 50.300781 78.921875 50.511719 79.074219 50.742188 C 79.230469 50.972656 79.359375 51.214844 79.464844 51.46875 C 79.570312 51.726562 79.652344 51.988281 79.703125 52.261719 C 79.757812 52.53125 79.785156 52.804688 79.785156 53.082031 L 79.785156 63.621094 C 79.785156 63.894531 79.757812 64.171875 79.703125 64.441406 C 79.652344 64.710938 79.570312 64.976562 79.464844 65.230469 C 79.359375 65.488281 79.230469 65.730469 79.074219 65.960938 C 78.921875 66.1875 78.746094 66.402344 78.550781 66.597656 C 78.355469 66.792969 78.144531 66.96875 77.914062 67.121094 C 77.683594 67.273438 77.441406 67.40625 77.1875 67.511719 C 76.929688 67.617188 76.667969 67.695312 76.394531 67.75 C 76.125 67.804688 75.851562 67.832031 75.574219 67.832031 L 43.695312 67.832031 C 43.417969 67.832031 43.144531 67.804688 42.875 67.75 C 42.601562 67.695312 42.339844 67.617188 42.085938 67.511719 C 41.828125 67.40625 41.585938 67.273438 41.355469 67.121094 C 41.125 66.96875 40.914062 66.792969 40.71875 66.597656 C 40.523438 66.402344 40.347656 66.1875 40.195312 65.960938 C 40.039062 65.730469 39.910156 65.488281 39.804688 65.230469 C 39.699219 64.976562 39.621094 64.710938 39.566406 64.441406 C 39.511719 64.171875 39.484375 63.894531 39.484375 63.621094 L 39.484375 53.082031 C 39.484375 52.804688 39.511719 52.53125 39.566406 52.261719 C 39.621094 51.988281 39.699219 51.726562 39.804688 51.46875 C 39.910156 51.214844 40.039062 50.972656 40.195312 50.742188 C 40.347656 50.511719 40.523438 50.300781 40.71875 50.105469 C 40.914062 49.910156 41.125 49.734375 41.355469 49.582031 C 41.585938 49.425781 41.828125 49.296875 42.085938 49.191406 C 42.339844 49.085938 42.601562 49.003906 42.875 48.953125 C 43.144531 48.898438 43.417969 48.871094 43.695312 48.871094 Z M 43.695312 48.871094 "/><path style=" stroke:none;fill-rule:nonzero;fill:#d8ebf6;fill-opacity:1;" d="M 43.695312 49.386719 L 75.570312 49.386719 C 76.0625 49.386719 76.535156 49.480469 76.988281 49.667969 C 77.441406 49.855469 77.839844 50.121094 78.1875 50.46875 C 78.535156 50.816406 78.800781 51.214844 78.988281 51.667969 C 79.175781 52.121094 79.269531 52.59375 79.269531 53.085938 L 79.269531 63.621094 C 79.269531 64.109375 79.175781 64.582031 78.988281 65.035156 C 78.800781 65.488281 78.535156 65.886719 78.1875 66.234375 C 77.839844 66.582031 77.441406 66.847656 76.988281 67.039062 C 76.535156 67.226562 76.0625 67.320312 75.570312 67.320312 L 43.695312 67.320312 C 43.207031 67.320312 42.734375 67.226562 42.28125 67.039062 C 41.828125 66.847656 41.425781 66.582031 41.082031 66.234375 C 40.734375 65.886719 40.464844 65.488281 40.277344 65.035156 C 40.089844 64.582031 39.996094 64.109375 39.996094 63.621094 L 39.996094 53.085938 C 39.996094 52.59375 40.089844 52.121094 40.277344 51.667969 C 40.464844 51.214844 40.734375 50.816406 41.082031 50.46875 C 41.425781 50.121094 41.828125 49.855469 42.28125 49.667969 C 42.734375 49.480469 43.207031 49.386719 43.695312 49.386719 Z M 43.695312 49.386719 "/><path style=" stroke:none;fill-rule:nonzero;fill:#231f20;fill-opacity:1;" d="M 49.617188 64.683594 C 50.050781 64.683594 50.480469 64.644531 50.90625 64.558594 C 51.332031 64.472656 51.746094 64.347656 52.144531 64.183594 C 52.546875 64.015625 52.929688 63.8125 53.289062 63.570312 C 53.648438 63.328125 53.984375 63.054688 54.289062 62.75 C 54.597656 62.441406 54.871094 62.109375 55.113281 61.746094 C 55.355469 61.386719 55.558594 61.003906 55.722656 60.605469 C 55.890625 60.203125 56.015625 59.789062 56.101562 59.363281 C 56.183594 58.9375 56.226562 58.507812 56.226562 58.074219 C 56.226562 57.640625 56.183594 57.210938 56.101562 56.785156 C 56.015625 56.359375 55.890625 55.945312 55.722656 55.542969 C 55.558594 55.144531 55.355469 54.761719 55.113281 54.402344 C 54.871094 54.039062 54.597656 53.707031 54.289062 53.398438 C 53.984375 53.09375 53.648438 52.816406 53.289062 52.578125 C 52.929688 52.335938 52.546875 52.132812 52.144531 51.964844 C 51.746094 51.800781 51.332031 51.675781 50.90625 51.589844 C 50.480469 51.503906 50.050781 51.460938 49.617188 51.460938 C 49.183594 51.460938 48.753906 51.503906 48.328125 51.589844 C 47.902344 51.675781 47.488281 51.800781 47.085938 51.964844 C 46.683594 52.132812 46.304688 52.335938 45.941406 52.578125 C 45.582031 52.816406 45.25 53.09375 44.941406 53.398438 C 44.632812 53.707031 44.359375 54.039062 44.117188 54.402344 C 43.878906 54.761719 43.675781 55.144531 43.507812 55.542969 C 43.34375 55.945312 43.214844 56.359375 43.132812 56.785156 C 43.046875 57.210938 43.003906 57.640625 43.003906 58.074219 C 43.003906 58.507812 43.046875 58.9375 43.132812 59.363281 C 43.21875 59.789062 43.34375 60.203125 43.511719 60.601562 C 43.675781 61.003906 43.878906 61.382812 44.121094 61.746094 C 44.363281 62.105469 44.636719 62.4375 44.945312 62.746094 C 45.25 63.054688 45.585938 63.328125 45.945312 63.566406 C 46.304688 63.808594 46.6875 64.011719 47.085938 64.179688 C 47.488281 64.347656 47.902344 64.472656 48.328125 64.554688 C 48.753906 64.640625 49.183594 64.683594 49.617188 64.683594 Z M 49.617188 64.683594 "/><path style=" stroke:none;fill-rule:nonzero;fill:#d8ebf6;fill-opacity:1;" d="M 49.617188 51.976562 C 50.015625 51.976562 50.414062 52.015625 50.804688 52.09375 C 51.199219 52.167969 51.582031 52.285156 51.953125 52.4375 C 52.320312 52.589844 52.671875 52.777344 53.007812 52.996094 C 53.339844 53.21875 53.648438 53.472656 53.933594 53.753906 C 54.21875 54.035156 54.46875 54.34375 54.695312 54.675781 C 54.917969 55.007812 55.105469 55.359375 55.257812 55.730469 C 55.414062 56.101562 55.53125 56.480469 55.609375 56.875 C 55.6875 57.265625 55.726562 57.664062 55.726562 58.0625 C 55.730469 58.464844 55.691406 58.859375 55.613281 59.253906 C 55.535156 59.644531 55.421875 60.027344 55.265625 60.398438 C 55.113281 60.769531 54.925781 61.121094 54.707031 61.453125 C 54.484375 61.785156 54.230469 62.09375 53.949219 62.378906 C 53.664062 62.664062 53.359375 62.914062 53.023438 63.136719 C 52.691406 63.363281 52.339844 63.550781 51.972656 63.703125 C 51.601562 63.855469 51.21875 63.972656 50.828125 64.050781 C 50.433594 64.128906 50.039062 64.167969 49.636719 64.171875 C 49.238281 64.171875 48.839844 64.132812 48.449219 64.054688 C 48.054688 63.976562 47.671875 63.859375 47.304688 63.707031 C 46.933594 63.554688 46.582031 63.367188 46.246094 63.144531 C 45.914062 62.921875 45.605469 62.667969 45.324219 62.386719 C 45.039062 62.101562 44.785156 61.796875 44.566406 61.460938 C 44.34375 61.128906 44.152344 60.777344 44 60.40625 C 43.847656 60.039062 43.730469 59.65625 43.652344 59.265625 C 43.574219 58.871094 43.535156 58.472656 43.535156 58.074219 C 43.535156 57.675781 43.574219 57.277344 43.652344 56.886719 C 43.730469 56.496094 43.847656 56.113281 44 55.746094 C 44.152344 55.375 44.339844 55.027344 44.5625 54.691406 C 44.78125 54.359375 45.035156 54.054688 45.316406 53.769531 C 45.597656 53.488281 45.90625 53.234375 46.238281 53.011719 C 46.570312 52.789062 46.917969 52.601562 47.289062 52.449219 C 47.65625 52.292969 48.039062 52.175781 48.429688 52.097656 C 48.820312 52.019531 49.214844 51.980469 49.617188 51.976562 Z M 49.617188 51.976562 "/><path style=" stroke:none;fill-rule:nonzero;fill:#231f20;fill-opacity:1;" d="M 49.617188 60.125 C 49.886719 60.125 50.148438 60.074219 50.402344 59.96875 C 50.652344 59.863281 50.875 59.714844 51.066406 59.523438 C 51.257812 59.332031 51.40625 59.109375 51.511719 58.859375 C 51.613281 58.609375 51.667969 58.347656 51.667969 58.074219 C 51.667969 57.800781 51.613281 57.539062 51.511719 57.289062 C 51.40625 57.039062 51.257812 56.816406 51.066406 56.625 C 50.875 56.429688 50.652344 56.28125 50.402344 56.179688 C 50.148438 56.074219 49.886719 56.023438 49.617188 56.023438 C 49.34375 56.023438 49.082031 56.074219 48.832031 56.179688 C 48.578125 56.28125 48.359375 56.429688 48.164062 56.625 C 47.972656 56.816406 47.824219 57.039062 47.722656 57.289062 C 47.617188 57.539062 47.566406 57.800781 47.566406 58.074219 C 47.566406 58.347656 47.617188 58.605469 47.722656 58.859375 C 47.824219 59.109375 47.972656 59.332031 48.167969 59.523438 C 48.359375 59.714844 48.582031 59.863281 48.832031 59.96875 C 49.082031 60.074219 49.34375 60.125 49.617188 60.125 Z M 49.617188 60.125 "/><path style=" stroke:none;fill-rule:nonzero;fill:#231f20;fill-opacity:1;" d="M 49.617188 56.535156 C 49.820312 56.535156 50.015625 56.574219 50.203125 56.652344 C 50.394531 56.730469 50.558594 56.839844 50.703125 56.984375 C 50.847656 57.128906 50.960938 57.296875 51.039062 57.484375 C 51.117188 57.671875 51.15625 57.871094 51.15625 58.074219 C 51.15625 58.277344 51.117188 58.472656 51.039062 58.664062 C 50.960938 58.851562 50.847656 59.019531 50.703125 59.164062 C 50.558594 59.308594 50.394531 59.417969 50.203125 59.496094 C 50.015625 59.574219 49.820312 59.613281 49.617188 59.613281 C 49.410156 59.613281 49.214844 59.574219 49.027344 59.496094 C 48.839844 59.417969 48.671875 59.308594 48.527344 59.164062 C 48.382812 59.019531 48.273438 58.851562 48.195312 58.664062 C 48.117188 58.472656 48.078125 58.277344 48.078125 58.074219 C 48.078125 57.871094 48.117188 57.675781 48.195312 57.484375 C 48.273438 57.296875 48.382812 57.128906 48.527344 56.988281 C 48.671875 56.84375 48.839844 56.730469 49.027344 56.652344 C 49.214844 56.574219 49.410156 56.535156 49.617188 56.535156 Z M 49.617188 56.535156 "/><path style=" stroke:none;fill-rule:nonzero;fill:#231f20;fill-opacity:1;" d="M 49.359375 62.148438 L 49.359375 63.335938 C 49.359375 63.40625 49.386719 63.464844 49.433594 63.515625 C 49.484375 63.566406 49.546875 63.589844 49.617188 63.589844 C 49.6875 63.589844 49.746094 63.566406 49.796875 63.515625 C 49.847656 63.464844 49.871094 63.40625 49.871094 63.335938 L 49.871094 62.148438 C 50.367188 62.113281 50.839844 61.996094 51.292969 61.789062 C 51.742188 61.585938 52.144531 61.304688 52.496094 60.957031 C 52.84375 60.605469 53.121094 60.203125 53.324219 59.75 C 53.53125 59.296875 53.648438 58.824219 53.679688 58.328125 L 54.769531 58.328125 C 54.84375 58.328125 54.902344 58.304688 54.953125 58.253906 C 55.003906 58.203125 55.027344 58.144531 55.027344 58.074219 C 55.027344 58.003906 55.003906 57.941406 54.953125 57.894531 C 54.902344 57.84375 54.84375 57.816406 54.769531 57.816406 L 53.679688 57.816406 C 53.648438 57.324219 53.53125 56.847656 53.328125 56.398438 C 53.121094 55.945312 52.84375 55.542969 52.496094 55.191406 C 52.144531 54.839844 51.742188 54.5625 51.292969 54.355469 C 50.839844 54.152344 50.367188 54.035156 49.871094 54 L 49.871094 52.808594 C 49.871094 52.734375 49.847656 52.675781 49.796875 52.625 C 49.746094 52.574219 49.6875 52.550781 49.617188 52.550781 C 49.546875 52.550781 49.484375 52.574219 49.433594 52.625 C 49.386719 52.675781 49.359375 52.734375 49.359375 52.808594 L 49.359375 53.992188 C 48.863281 54.027344 48.390625 54.144531 47.9375 54.347656 C 47.484375 54.554688 47.082031 54.832031 46.730469 55.183594 C 46.378906 55.535156 46.101562 55.941406 45.894531 56.394531 C 45.691406 56.847656 45.574219 57.320312 45.542969 57.816406 L 44.421875 57.816406 C 44.351562 57.816406 44.292969 57.84375 44.242188 57.894531 C 44.191406 57.941406 44.167969 58.003906 44.167969 58.074219 C 44.167969 58.144531 44.191406 58.203125 44.242188 58.253906 C 44.292969 58.304688 44.351562 58.328125 44.421875 58.328125 L 45.542969 58.328125 C 45.574219 58.824219 45.691406 59.300781 45.898438 59.753906 C 46.101562 60.207031 46.378906 60.605469 46.730469 60.957031 C 47.082031 61.308594 47.484375 61.585938 47.9375 61.792969 C 48.390625 61.996094 48.863281 62.117188 49.359375 62.148438 Z M 49.359375 62.148438 "/><path style=" stroke:none;fill-rule:nonzero;fill:#d8ebf6;fill-opacity:1;" d="M 46.527344 57.816406 L 46.058594 57.816406 C 46.089844 57.390625 46.191406 56.980469 46.371094 56.589844 C 46.550781 56.203125 46.789062 55.855469 47.09375 55.550781 C 47.398438 55.25 47.742188 55.007812 48.132812 54.828125 C 48.523438 54.652344 48.933594 54.546875 49.359375 54.515625 L 49.359375 54.917969 C 49.359375 54.988281 49.386719 55.050781 49.433594 55.101562 C 49.484375 55.148438 49.546875 55.175781 49.617188 55.175781 C 49.6875 55.175781 49.746094 55.148438 49.796875 55.101562 C 49.847656 55.050781 49.871094 54.988281 49.871094 54.917969 L 49.871094 54.515625 C 50.300781 54.546875 50.707031 54.652344 51.097656 54.828125 C 51.488281 55.007812 51.835938 55.25 52.136719 55.550781 C 52.441406 55.855469 52.683594 56.203125 52.859375 56.589844 C 53.039062 56.980469 53.144531 57.390625 53.175781 57.816406 L 52.671875 57.816406 C 52.601562 57.816406 52.539062 57.84375 52.492188 57.894531 C 52.441406 57.941406 52.414062 58.003906 52.414062 58.074219 C 52.414062 58.144531 52.441406 58.203125 52.492188 58.253906 C 52.539062 58.304688 52.601562 58.328125 52.671875 58.328125 L 53.175781 58.328125 C 53.144531 58.757812 53.039062 59.167969 52.859375 59.558594 C 52.683594 59.945312 52.441406 60.292969 52.136719 60.597656 C 51.835938 60.898438 51.488281 61.140625 51.097656 61.320312 C 50.707031 61.496094 50.300781 61.601562 49.871094 61.632812 L 49.871094 61.230469 C 49.871094 61.160156 49.847656 61.097656 49.796875 61.046875 C 49.746094 61 49.6875 60.972656 49.617188 60.972656 C 49.546875 60.972656 49.484375 61 49.433594 61.046875 C 49.386719 61.097656 49.359375 61.160156 49.359375 61.230469 L 49.359375 61.632812 C 48.933594 61.601562 48.523438 61.496094 48.132812 61.320312 C 47.742188 61.140625 47.398438 60.898438 47.09375 60.597656 C 46.789062 60.292969 46.550781 59.945312 46.371094 59.558594 C 46.191406 59.167969 46.089844 58.757812 46.058594 58.328125 L 46.527344 58.328125 C 46.597656 58.328125 46.660156 58.304688 46.710938 58.253906 C 46.757812 58.203125 46.785156 58.144531 46.785156 58.074219 C 46.785156 58.003906 46.757812 57.941406 46.710938 57.894531 C 46.660156 57.84375 46.597656 57.816406 46.527344 57.816406 Z M 46.527344 57.816406 "/><path style=" stroke:none;fill-rule:nonzero;fill:#231f20;fill-opacity:1;" d="M 69.007812 64.683594 C 69.441406 64.683594 69.871094 64.644531 70.296875 64.558594 C 70.722656 64.472656 71.136719 64.347656 71.539062 64.183594 C 71.9375 64.015625 72.320312 63.8125 72.679688 63.570312 C 73.042969 63.328125 73.375 63.054688 73.683594 62.75 C 73.988281 62.441406 74.265625 62.109375 74.503906 61.746094 C 74.746094 61.386719 74.949219 61.003906 75.117188 60.605469 C 75.28125 60.203125 75.40625 59.789062 75.492188 59.363281 C 75.578125 58.9375 75.621094 58.507812 75.621094 58.074219 C 75.621094 57.640625 75.578125 57.210938 75.492188 56.785156 C 75.40625 56.359375 75.28125 55.945312 75.117188 55.542969 C 74.949219 55.144531 74.746094 54.761719 74.503906 54.402344 C 74.265625 54.039062 73.988281 53.707031 73.683594 53.398438 C 73.375 53.09375 73.042969 52.816406 72.679688 52.578125 C 72.320312 52.335938 71.9375 52.132812 71.539062 51.964844 C 71.136719 51.800781 70.722656 51.675781 70.296875 51.589844 C 69.871094 51.503906 69.441406 51.460938 69.007812 51.460938 C 68.574219 51.460938 68.144531 51.503906 67.71875 51.589844 C 67.292969 51.675781 66.878906 51.800781 66.476562 51.964844 C 66.078125 52.132812 65.695312 52.335938 65.335938 52.578125 C 64.972656 52.816406 64.640625 53.09375 64.332031 53.398438 C 64.027344 53.707031 63.753906 54.039062 63.511719 54.402344 C 63.269531 54.761719 63.066406 55.144531 62.898438 55.542969 C 62.734375 55.945312 62.609375 56.359375 62.523438 56.785156 C 62.4375 57.210938 62.398438 57.640625 62.398438 58.074219 C 62.398438 58.507812 62.441406 58.9375 62.527344 59.363281 C 62.609375 59.789062 62.734375 60.203125 62.902344 60.601562 C 63.070312 61.003906 63.273438 61.382812 63.515625 61.746094 C 63.753906 62.105469 64.027344 62.4375 64.335938 62.746094 C 64.644531 63.054688 64.976562 63.328125 65.335938 63.566406 C 65.699219 63.808594 66.078125 64.011719 66.480469 64.179688 C 66.878906 64.347656 67.292969 64.472656 67.71875 64.554688 C 68.144531 64.640625 68.574219 64.683594 69.007812 64.683594 Z M 69.007812 64.683594 "/><path style=" stroke:none;fill-rule:nonzero;fill:#d8ebf6;fill-opacity:1;" d="M 69.007812 51.976562 C 69.410156 51.976562 69.804688 52.015625 70.199219 52.09375 C 70.589844 52.171875 70.972656 52.289062 71.339844 52.441406 C 71.710938 52.59375 72.0625 52.78125 72.394531 53.003906 C 72.726562 53.226562 73.035156 53.480469 73.320312 53.761719 C 73.601562 54.046875 73.855469 54.355469 74.078125 54.6875 C 74.300781 55.019531 74.488281 55.371094 74.640625 55.742188 C 74.792969 56.109375 74.910156 56.492188 74.988281 56.882812 C 75.066406 57.277344 75.105469 57.671875 75.105469 58.074219 C 75.105469 58.472656 75.066406 58.871094 74.988281 59.261719 C 74.910156 59.65625 74.792969 60.035156 74.640625 60.40625 C 74.488281 60.777344 74.300781 61.128906 74.078125 61.460938 C 73.855469 61.792969 73.601562 62.101562 73.320312 62.382812 C 73.035156 62.667969 72.726562 62.921875 72.394531 63.144531 C 72.0625 63.363281 71.710938 63.554688 71.339844 63.707031 C 70.972656 63.859375 70.589844 63.976562 70.199219 64.054688 C 69.804688 64.132812 69.410156 64.171875 69.007812 64.171875 C 68.609375 64.171875 68.210938 64.132812 67.820312 64.054688 C 67.425781 63.976562 67.046875 63.859375 66.675781 63.707031 C 66.304688 63.554688 65.953125 63.363281 65.621094 63.144531 C 65.289062 62.921875 64.980469 62.667969 64.699219 62.382812 C 64.414062 62.101562 64.160156 61.792969 63.9375 61.460938 C 63.71875 61.128906 63.527344 60.777344 63.375 60.40625 C 63.222656 60.035156 63.105469 59.65625 63.027344 59.261719 C 62.949219 58.871094 62.910156 58.472656 62.910156 58.074219 C 62.914062 57.671875 62.953125 57.277344 63.03125 56.886719 C 63.109375 56.492188 63.222656 56.113281 63.375 55.742188 C 63.53125 55.371094 63.71875 55.019531 63.941406 54.6875 C 64.164062 54.355469 64.414062 54.046875 64.699219 53.765625 C 64.980469 53.480469 65.289062 53.230469 65.621094 53.007812 C 65.953125 52.785156 66.304688 52.597656 66.675781 52.441406 C 67.046875 52.289062 67.425781 52.175781 67.820312 52.09375 C 68.210938 52.015625 68.609375 51.976562 69.007812 51.976562 Z M 69.007812 51.976562 "/><path style=" stroke:none;fill-rule:nonzero;fill:#231f20;fill-opacity:1;" d="M 71.058594 58.074219 C 71.058594 58.347656 71.007812 58.609375 70.902344 58.859375 C 70.800781 59.109375 70.652344 59.332031 70.457031 59.523438 C 70.265625 59.714844 70.042969 59.863281 69.792969 59.96875 C 69.542969 60.074219 69.28125 60.125 69.007812 60.125 C 68.734375 60.125 68.472656 60.074219 68.222656 59.96875 C 67.972656 59.863281 67.75 59.714844 67.558594 59.523438 C 67.367188 59.332031 67.21875 59.109375 67.113281 58.859375 C 67.007812 58.609375 66.957031 58.347656 66.957031 58.074219 C 66.957031 57.800781 67.007812 57.539062 67.113281 57.289062 C 67.21875 57.039062 67.367188 56.816406 67.558594 56.625 C 67.75 56.429688 67.972656 56.28125 68.222656 56.179688 C 68.472656 56.074219 68.734375 56.023438 69.007812 56.023438 C 69.28125 56.023438 69.542969 56.074219 69.792969 56.179688 C 70.042969 56.28125 70.265625 56.429688 70.457031 56.625 C 70.652344 56.816406 70.800781 57.039062 70.902344 57.289062 C 71.007812 57.539062 71.058594 57.800781 71.058594 58.074219 Z M 71.058594 58.074219 "/><path style=" stroke:none;fill-rule:nonzero;fill:#231f20;fill-opacity:1;" d="M 70.546875 58.074219 C 70.546875 58.277344 70.507812 58.472656 70.429688 58.664062 C 70.351562 58.851562 70.242188 59.019531 70.097656 59.164062 C 69.953125 59.308594 69.785156 59.417969 69.597656 59.496094 C 69.410156 59.574219 69.210938 59.613281 69.007812 59.613281 C 68.804688 59.613281 68.609375 59.574219 68.417969 59.496094 C 68.230469 59.417969 68.0625 59.308594 67.917969 59.164062 C 67.773438 59.019531 67.664062 58.851562 67.585938 58.664062 C 67.507812 58.472656 67.46875 58.277344 67.46875 58.074219 C 67.46875 57.871094 67.507812 57.671875 67.585938 57.484375 C 67.664062 57.296875 67.773438 57.128906 67.917969 56.984375 C 68.0625 56.839844 68.230469 56.730469 68.417969 56.652344 C 68.609375 56.574219 68.804688 56.535156 69.007812 56.535156 C 69.210938 56.535156 69.410156 56.574219 69.597656 56.652344 C 69.785156 56.730469 69.953125 56.839844 70.097656 56.984375 C 70.242188 57.128906 70.351562 57.296875 70.429688 57.484375 C 70.507812 57.671875 70.546875 57.871094 70.546875 58.074219 Z M 70.546875 58.074219 "/><path style=" stroke:none;fill-rule:nonzero;fill:#231f20;fill-opacity:1;" d="M 68.753906 62.148438 L 68.753906 63.335938 C 68.753906 63.40625 68.777344 63.464844 68.828125 63.515625 C 68.878906 63.566406 68.9375 63.589844 69.007812 63.589844 C 69.078125 63.589844 69.140625 63.566406 69.1875 63.515625 C 69.238281 63.464844 69.265625 63.40625 69.265625 63.335938 L 69.265625 62.148438 C 69.757812 62.117188 70.234375 61.996094 70.6875 61.792969 C 71.140625 61.585938 71.539062 61.308594 71.890625 60.957031 C 72.242188 60.605469 72.523438 60.207031 72.726562 59.753906 C 72.929688 59.300781 73.050781 58.824219 73.082031 58.328125 L 74.160156 58.328125 C 74.230469 58.328125 74.292969 58.304688 74.339844 58.253906 C 74.390625 58.203125 74.414062 58.144531 74.414062 58.074219 C 74.414062 58.003906 74.390625 57.941406 74.339844 57.894531 C 74.292969 57.84375 74.230469 57.816406 74.160156 57.816406 L 73.070312 57.816406 C 73.039062 57.324219 72.917969 56.851562 72.714844 56.398438 C 72.511719 55.945312 72.234375 55.542969 71.886719 55.191406 C 71.535156 54.84375 71.132812 54.5625 70.683594 54.359375 C 70.230469 54.152344 69.757812 54.035156 69.265625 54 L 69.265625 52.808594 C 69.265625 52.734375 69.238281 52.675781 69.1875 52.625 C 69.140625 52.574219 69.078125 52.550781 69.007812 52.550781 C 68.9375 52.550781 68.878906 52.574219 68.828125 52.625 C 68.777344 52.675781 68.753906 52.734375 68.753906 52.808594 L 68.753906 53.992188 C 68.257812 54.027344 67.78125 54.144531 67.328125 54.347656 C 66.875 54.554688 66.472656 54.832031 66.121094 55.183594 C 65.773438 55.535156 65.492188 55.9375 65.289062 56.390625 C 65.085938 56.839844 64.964844 57.316406 64.933594 57.8125 L 63.8125 57.8125 C 63.742188 57.8125 63.683594 57.835938 63.632812 57.886719 C 63.582031 57.9375 63.558594 57.996094 63.558594 58.066406 C 63.558594 58.136719 63.582031 58.199219 63.632812 58.25 C 63.683594 58.300781 63.742188 58.324219 63.8125 58.324219 L 64.933594 58.324219 C 64.964844 58.820312 65.082031 59.292969 65.289062 59.746094 C 65.492188 60.203125 65.769531 60.605469 66.121094 60.957031 C 66.472656 61.308594 66.875 61.585938 67.328125 61.792969 C 67.78125 61.996094 68.253906 62.117188 68.753906 62.148438 Z M 68.753906 62.148438 "/><path style=" stroke:none;fill-rule:nonzero;fill:#d8ebf6;fill-opacity:1;" d="M 65.921875 57.816406 L 65.449219 57.816406 C 65.480469 57.390625 65.585938 56.980469 65.761719 56.589844 C 65.941406 56.203125 66.183594 55.855469 66.484375 55.550781 C 66.789062 55.25 67.136719 55.007812 67.523438 54.828125 C 67.914062 54.652344 68.324219 54.546875 68.753906 54.515625 L 68.753906 54.917969 C 68.753906 54.988281 68.777344 55.050781 68.828125 55.101562 C 68.878906 55.148438 68.9375 55.175781 69.007812 55.175781 C 69.078125 55.175781 69.140625 55.148438 69.1875 55.101562 C 69.238281 55.050781 69.265625 54.988281 69.265625 54.917969 L 69.265625 54.515625 C 69.691406 54.546875 70.097656 54.652344 70.488281 54.832031 C 70.878906 55.007812 71.222656 55.25 71.527344 55.554688 C 71.828125 55.855469 72.070312 56.203125 72.246094 56.59375 C 72.425781 56.980469 72.527344 57.390625 72.558594 57.816406 L 72.0625 57.816406 C 71.988281 57.816406 71.929688 57.84375 71.878906 57.894531 C 71.828125 57.941406 71.804688 58.003906 71.804688 58.074219 C 71.804688 58.144531 71.828125 58.203125 71.878906 58.253906 C 71.929688 58.304688 71.988281 58.328125 72.0625 58.328125 L 72.558594 58.328125 C 72.527344 58.757812 72.425781 59.164062 72.246094 59.554688 C 72.070312 59.945312 71.828125 60.292969 71.527344 60.59375 C 71.222656 60.898438 70.878906 61.136719 70.488281 61.316406 C 70.097656 61.496094 69.691406 61.601562 69.265625 61.632812 L 69.265625 61.230469 C 69.265625 61.160156 69.238281 61.097656 69.1875 61.046875 C 69.140625 61 69.078125 60.972656 69.007812 60.972656 C 68.9375 60.972656 68.878906 61 68.828125 61.046875 C 68.777344 61.097656 68.753906 61.160156 68.753906 61.230469 L 68.753906 61.632812 C 68.324219 61.601562 67.914062 61.496094 67.523438 61.320312 C 67.136719 61.140625 66.789062 60.898438 66.484375 60.597656 C 66.183594 60.292969 65.941406 59.945312 65.761719 59.558594 C 65.585938 59.167969 65.480469 58.757812 65.449219 58.328125 L 65.921875 58.328125 C 65.992188 58.328125 66.050781 58.304688 66.101562 58.253906 C 66.152344 58.203125 66.175781 58.144531 66.175781 58.074219 C 66.175781 58.003906 66.152344 57.941406 66.101562 57.894531 C 66.050781 57.84375 65.992188 57.816406 65.921875 57.816406 Z M 65.921875 57.816406 "/><path style=" stroke:none;fill-rule:nonzero;fill:#231f20;fill-opacity:1;" d="M 110.421875 48.988281 L 108.898438 48.988281 L 108.898438 48.949219 L 85.648438 48.949219 L 85.648438 48.988281 L 84.121094 48.988281 L 84.121094 67.195312 L 110.421875 67.195312 Z M 110.421875 48.988281 "/><path style=" stroke:none;fill-rule:nonzero;fill:#d8ebf6;fill-opacity:1;" d="M 98.230469 49.503906 L 108.382812 49.503906 L 108.382812 51.5625 L 98.230469 51.5625 Z M 98.230469 49.503906 "/><path style=" stroke:none;fill-rule:nonzero;fill:#d8ebf6;fill-opacity:1;" d="M 96.152344 49.503906 L 97.71875 49.503906 L 97.71875 57.617188 L 96.152344 57.617188 Z M 96.152344 49.503906 "/><path style=" stroke:none;fill-rule:nonzero;fill:#d8ebf6;fill-opacity:1;" d="M 86.160156 49.503906 L 95.636719 49.503906 L 95.636719 51.5625 L 86.160156 51.5625 Z M 86.160156 49.503906 "/><path style=" stroke:none;fill-rule:nonzero;fill:#d8ebf6;fill-opacity:1;" d="M 86.160156 52.078125 L 95.636719 52.078125 L 95.636719 58.128906 L 98.230469 58.128906 L 98.230469 52.078125 L 108.386719 52.078125 L 108.386719 65.234375 L 86.160156 65.234375 Z M 86.160156 52.078125 "/><path style=" stroke:none;fill-rule:nonzero;fill:#d8ebf6;fill-opacity:1;" d="M 109.910156 66.683594 L 84.636719 66.683594 L 84.636719 49.503906 L 85.648438 49.503906 L 85.648438 65.746094 L 108.898438 65.746094 L 108.898438 49.503906 L 109.910156 49.503906 Z M 109.910156 66.683594 "/><path style=" stroke:none;fill-rule:nonzero;fill:#231f20;fill-opacity:1;" d="M 98.230469 59.703125 C 98.230469 59.875 98.199219 60.039062 98.132812 60.199219 C 98.066406 60.359375 97.972656 60.496094 97.851562 60.621094 C 97.730469 60.742188 97.589844 60.835938 97.429688 60.898438 C 97.273438 60.964844 97.105469 61 96.933594 61 C 96.761719 61 96.597656 60.964844 96.4375 60.898438 C 96.28125 60.835938 96.140625 60.742188 96.019531 60.621094 C 95.894531 60.496094 95.804688 60.359375 95.738281 60.199219 C 95.671875 60.039062 95.636719 59.875 95.636719 59.703125 C 95.636719 59.53125 95.671875 59.367188 95.738281 59.207031 C 95.804688 59.046875 95.894531 58.90625 96.019531 58.785156 C 96.140625 58.664062 96.28125 58.570312 96.4375 58.503906 C 96.597656 58.441406 96.761719 58.40625 96.933594 58.40625 C 97.105469 58.40625 97.273438 58.441406 97.429688 58.503906 C 97.589844 58.570312 97.730469 58.664062 97.851562 58.785156 C 97.972656 58.90625 98.066406 59.046875 98.132812 59.207031 C 98.199219 59.367188 98.230469 59.53125 98.230469 59.703125 Z M 98.230469 59.703125 "/><path style=" stroke:none;fill-rule:nonzero;fill:#d8ebf6;fill-opacity:1;" d="M 97.71875 59.703125 C 97.71875 59.917969 97.640625 60.105469 97.488281 60.257812 C 97.335938 60.410156 97.152344 60.488281 96.933594 60.488281 C 96.71875 60.488281 96.53125 60.410156 96.378906 60.257812 C 96.226562 60.105469 96.152344 59.917969 96.152344 59.703125 C 96.152344 59.484375 96.226562 59.300781 96.378906 59.148438 C 96.53125 58.996094 96.71875 58.917969 96.933594 58.917969 C 97.152344 58.917969 97.335938 58.996094 97.488281 59.148438 C 97.640625 59.300781 97.71875 59.484375 97.71875 59.703125 Z M 97.71875 59.703125 "/><path style=" stroke:none;fill-rule:nonzero;fill:#231f20;fill-opacity:1;" d="M 71.933594 115.199219 L 64.746094 115.199219 L 64.746094 117.203125 L 39.34375 117.203125 L 39.34375 140.429688 L 72.964844 140.429688 L 72.964844 117.203125 L 71.933594 117.203125 Z M 71.933594 115.199219 "/><path style=" stroke:none;fill-rule:nonzero;fill:#d8ebf6;fill-opacity:1;" d="M 65.257812 115.710938 L 71.421875 115.710938 L 71.421875 117.203125 L 65.257812 117.203125 Z M 65.257812 115.710938 "/><path style=" stroke:none;fill-rule:nonzero;fill:#d8ebf6;fill-opacity:1;" d="M 39.855469 121.632812 L 72.453125 121.632812 L 72.453125 139.917969 L 39.855469 139.917969 Z M 39.855469 121.632812 "/><path style=" stroke:none;fill-rule:nonzero;fill:#d8ebf6;fill-opacity:1;" d="M 39.855469 117.714844 L 72.453125 117.714844 L 72.453125 121.121094 L 39.855469 121.121094 Z M 39.855469 117.714844 "/><path style=" stroke:none;fill-rule:nonzero;fill:#231f20;fill-opacity:1;" d="M 153.214844 232.046875 L 155.71875 232.046875 L 155.71875 224.296875 L 153.214844 224.296875 L 153.214844 222.914062 L 155.71875 222.914062 L 155.71875 215.160156 L 153.214844 215.160156 L 153.214844 188.59375 L 124.078125 188.59375 L 124.078125 258.613281 L 153.214844 258.613281 Z M 153.214844 232.046875 "/><g mask="url(#d9a9a9b2f3)" transform="matrix(1,0,0,1,153,215)"><g clip-path="url(#588bf2c4a8)"><g clip-rule="nonzero" clip-path="url(#0d9534c25e)"><path style=" stroke:none;fill-rule:nonzero;fill:#231f20;fill-opacity:1;" d="M 0.214844 0.929688 L 1.945312 0.929688 L 1.945312 7.140625 L 0.214844 7.140625 Z M 0.214844 0.929688 "/></g></g><mask id="d9a9a9b2f3"><g filter="url(#0f42d069c9)"><rect x="0" width="300" y="0" height="299.999988" style="fill:#000000;fill-opacity:0.59;stroke:none;"/></g></mask></g><g mask="url(#43de2d0660)" transform="matrix(1,0,0,1,148,189)"><g clip-path="url(#c9ef80f33c)"><g clip-rule="nonzero" clip-path="url(#9a9e2e6fc7)"><path style=" stroke:none;fill-rule:nonzero;fill:#231f20;fill-opacity:1;" d="M 0.328125 0.367188 L 4.445312 0.367188 L 4.445312 34.21875 L 0.328125 34.21875 Z M 0.328125 0.367188 "/></g></g><mask id="43de2d0660"><g filter="url(#0f42d069c9)"><rect x="0" width="300" y="0" height="299.999988" style="fill:#000000;fill-opacity:0.59;stroke:none;"/></g></mask></g><g mask="url(#d7d175dcbf)" transform="matrix(1,0,0,1,124,223)"><g clip-path="url(#b619a0a94e)"><g clip-rule="nonzero" clip-path="url(#ea6ae38ce0)"><path style=" stroke:none;fill-rule:nonzero;fill:#231f20;fill-opacity:1;" d="M 0.84375 0.992188 L 23.550781 0.992188 L 23.550781 34.84375 L 0.84375 34.84375 Z M 0.84375 0.992188 "/></g></g><mask id="d7d175dcbf"><g filter="url(#0f42d069c9)"><rect x="0" width="300" y="0" height="299.999988" style="fill:#000000;fill-opacity:0.59;stroke:none;"/></g></mask></g><g mask="url(#775e86c9b7)" transform="matrix(1,0,0,1,124,189)"><g clip-path="url(#56a2d6c02a)"><g clip-rule="nonzero" clip-path="url(#b02771cabb)"><path style=" stroke:none;fill-rule:nonzero;fill:#231f20;fill-opacity:1;" d="M 0.84375 0.367188 L 23.550781 0.367188 L 23.550781 34.21875 L 0.84375 34.21875 Z M 0.84375 0.367188 "/></g></g><mask id="775e86c9b7"><g filter="url(#0f42d069c9)"><rect x="0" width="300" y="0" height="299.999988" style="fill:#000000;fill-opacity:0.59;stroke:none;"/></g></mask></g><g mask="url(#bb6ad9a2ed)" transform="matrix(1,0,0,1,148,223)"><g clip-path="url(#7271ae964b)"><g clip-rule="nonzero" clip-path="url(#4b7eb79045)"><path style=" stroke:none;fill-rule:nonzero;fill:#231f20;fill-opacity:1;" d="M 0.328125 0.992188 L 4.445312 0.992188 L 4.445312 34.84375 L 0.328125 34.84375 Z M 0.328125 0.992188 "/></g></g><mask id="bb6ad9a2ed"><g filter="url(#0f42d069c9)"><rect x="0" width="300" y="0" height="299.999988" style="fill:#000000;fill-opacity:0.59;stroke:none;"/></g></mask></g><g mask="url(#3cd2d48468)" transform="matrix(1,0,0,1,153,224)"><g clip-path="url(#8cb79d5c3b)"><g clip-rule="nonzero" clip-path="url(#fa8e19cd63)"><path style=" stroke:none;fill-rule:nonzero;fill:#231f20;fill-opacity:1;" d="M 0.214844 1.070312 L 1.945312 1.070312 L 1.945312 7.277344 L 0.214844 7.277344 Z M 0.214844 1.070312 "/></g></g><mask id="3cd2d48468"><g filter="url(#0f42d069c9)"><rect x="0" width="300" y="0" height="299.999988" style="fill:#000000;fill-opacity:0.59;stroke:none;"/></g></mask></g><path style=" stroke:none;fill-rule:nonzero;fill:#231f20;fill-opacity:1;" d="M 71.792969 232.507812 C 71.792969 222.363281 64.804688 214.109375 56.222656 214.109375 C 47.640625 214.109375 40.65625 222.363281 40.65625 232.507812 C 40.632812 234.769531 40.980469 236.976562 41.699219 239.125 C 42.417969 241.273438 43.464844 243.246094 44.84375 245.039062 L 44.84375 250.132812 L 44.273438 250.132812 C 43.792969 250.132812 43.332031 250.222656 42.890625 250.40625 C 42.445312 250.589844 42.054688 250.851562 41.714844 251.191406 C 41.378906 251.53125 41.117188 251.921875 40.933594 252.363281 C 40.75 252.808594 40.65625 253.269531 40.65625 253.746094 L 40.65625 256.769531 C 40.65625 257.246094 40.75 257.707031 40.933594 258.152344 C 41.117188 258.59375 41.378906 258.984375 41.714844 259.324219 C 42.054688 259.664062 42.445312 259.925781 42.890625 260.109375 C 43.332031 260.292969 43.792969 260.382812 44.273438 260.382812 L 68.171875 260.382812 C 68.652344 260.382812 69.113281 260.292969 69.554688 260.109375 C 70 259.925781 70.390625 259.664062 70.730469 259.324219 C 71.070312 258.984375 71.332031 258.59375 71.515625 258.152344 C 71.699219 257.710938 71.792969 257.246094 71.792969 256.769531 L 71.792969 253.746094 C 71.792969 253.269531 71.699219 252.804688 71.515625 252.363281 C 71.332031 251.921875 71.070312 251.53125 70.730469 251.191406 C 70.390625 250.851562 70 250.589844 69.558594 250.40625 C 69.113281 250.222656 68.652344 250.132812 68.171875 250.132812 L 67.5 250.132812 L 67.5 245.164062 C 70.15625 241.867188 71.792969 237.410156 71.792969 232.507812 Z M 71.792969 232.507812 "/><path style=" stroke:none;fill-rule:nonzero;fill:#d8ebf6;fill-opacity:1;" d="M 44.273438 250.898438 L 68.175781 250.898438 C 68.554688 250.898438 68.917969 250.972656 69.265625 251.117188 C 69.613281 251.261719 69.921875 251.464844 70.1875 251.734375 C 70.453125 252 70.660156 252.308594 70.804688 252.65625 C 70.949219 253.003906 71.019531 253.367188 71.019531 253.746094 L 71.019531 256.769531 C 71.019531 257.144531 70.949219 257.507812 70.804688 257.855469 C 70.660156 258.207031 70.453125 258.511719 70.1875 258.78125 C 69.921875 259.046875 69.613281 259.253906 69.265625 259.398438 C 68.917969 259.539062 68.554688 259.613281 68.175781 259.613281 L 44.273438 259.613281 C 43.894531 259.613281 43.53125 259.539062 43.183594 259.398438 C 42.835938 259.253906 42.527344 259.046875 42.261719 258.78125 C 41.992188 258.511719 41.789062 258.207031 41.644531 257.855469 C 41.5 257.507812 41.425781 257.144531 41.425781 256.769531 L 41.425781 253.746094 C 41.425781 253.367188 41.5 253.003906 41.644531 252.65625 C 41.789062 252.308594 41.992188 252 42.261719 251.734375 C 42.527344 251.464844 42.835938 251.261719 43.183594 251.117188 C 43.53125 250.972656 43.894531 250.898438 44.273438 250.898438 Z M 44.273438 250.898438 "/><path style=" stroke:none;fill-rule:nonzero;fill:#d8ebf6;fill-opacity:1;" d="M 45.613281 250.132812 L 45.613281 245.949219 C 47.3125 247.859375 49.359375 249.253906 51.761719 250.132812 Z M 45.613281 250.132812 "/><path style=" stroke:none;fill-rule:nonzero;fill:#d8ebf6;fill-opacity:1;" d="M 60.675781 250.132812 C 63.027344 249.277344 65.046875 247.921875 66.730469 246.0625 L 66.730469 250.132812 Z M 60.675781 250.132812 "/><path style=" stroke:none;fill-rule:nonzero;fill:#d8ebf6;fill-opacity:1;" d="M 71.019531 232.507812 C 71.019531 233.082031 70.996094 233.660156 70.949219 234.234375 C 70.902344 234.808594 70.832031 235.378906 70.738281 235.945312 C 70.640625 236.511719 70.523438 237.070312 70.382812 237.621094 C 70.242188 238.175781 70.078125 238.71875 69.894531 239.25 C 69.710938 239.785156 69.503906 240.304688 69.273438 240.816406 C 69.046875 241.324219 68.796875 241.816406 68.527344 242.296875 C 68.257812 242.777344 67.96875 243.242188 67.660156 243.6875 C 67.355469 244.132812 67.03125 244.5625 66.6875 244.96875 C 66.34375 245.378906 65.984375 245.765625 65.609375 246.128906 C 65.238281 246.496094 64.847656 246.839844 64.445312 247.160156 C 64.042969 247.480469 63.625 247.777344 63.199219 248.050781 C 62.773438 248.324219 62.335938 248.570312 61.886719 248.789062 C 61.4375 249.011719 60.984375 249.207031 60.519531 249.371094 C 60.054688 249.539062 59.585938 249.679688 59.109375 249.792969 C 58.636719 249.90625 58.15625 249.988281 57.675781 250.046875 C 57.191406 250.101562 56.707031 250.132812 56.222656 250.132812 C 55.738281 250.132812 55.257812 250.101562 54.773438 250.046875 C 54.292969 249.988281 53.8125 249.90625 53.335938 249.792969 C 52.863281 249.679688 52.390625 249.539062 51.929688 249.371094 C 51.464844 249.207031 51.007812 249.011719 50.5625 248.789062 C 50.113281 248.570312 49.675781 248.324219 49.25 248.050781 C 48.820312 247.777344 48.40625 247.480469 48.003906 247.160156 C 47.601562 246.839844 47.210938 246.496094 46.835938 246.128906 C 46.460938 245.765625 46.105469 245.378906 45.761719 244.96875 C 45.417969 244.5625 45.09375 244.132812 44.785156 243.6875 C 44.476562 243.242188 44.191406 242.777344 43.921875 242.296875 C 43.652344 241.816406 43.402344 241.324219 43.175781 240.816406 C 42.945312 240.304688 42.738281 239.785156 42.554688 239.25 C 42.367188 238.71875 42.203125 238.175781 42.0625 237.621094 C 41.921875 237.070312 41.804688 236.511719 41.710938 235.945312 C 41.617188 235.378906 41.546875 234.808594 41.5 234.234375 C 41.449219 233.660156 41.425781 233.082031 41.425781 232.507812 C 41.425781 231.929688 41.449219 231.351562 41.5 230.777344 C 41.546875 230.203125 41.617188 229.632812 41.710938 229.066406 C 41.804688 228.5 41.921875 227.941406 42.0625 227.390625 C 42.203125 226.835938 42.367188 226.292969 42.554688 225.761719 C 42.738281 225.226562 42.945312 224.707031 43.175781 224.199219 C 43.402344 223.6875 43.652344 223.195312 43.921875 222.714844 C 44.191406 222.234375 44.476562 221.769531 44.785156 221.324219 C 45.09375 220.878906 45.417969 220.449219 45.761719 220.042969 C 46.105469 219.632812 46.460938 219.246094 46.835938 218.882812 C 47.210938 218.515625 47.601562 218.171875 48.003906 217.851562 C 48.40625 217.53125 48.820312 217.234375 49.25 216.960938 C 49.675781 216.691406 50.113281 216.441406 50.5625 216.222656 C 51.007812 216 51.464844 215.808594 51.929688 215.640625 C 52.390625 215.472656 52.863281 215.332031 53.335938 215.21875 C 53.8125 215.105469 54.292969 215.023438 54.773438 214.964844 C 55.257812 214.910156 55.738281 214.878906 56.222656 214.878906 C 56.707031 214.878906 57.191406 214.910156 57.675781 214.964844 C 58.15625 215.023438 58.636719 215.105469 59.109375 215.21875 C 59.585938 215.332031 60.054688 215.472656 60.519531 215.640625 C 60.984375 215.808594 61.4375 216 61.886719 216.222656 C 62.335938 216.441406 62.773438 216.691406 63.199219 216.960938 C 63.625 217.234375 64.042969 217.53125 64.445312 217.851562 C 64.847656 218.171875 65.238281 218.515625 65.609375 218.882812 C 65.984375 219.246094 66.34375 219.632812 66.6875 220.042969 C 67.03125 220.449219 67.355469 220.878906 67.660156 221.324219 C 67.96875 221.769531 68.257812 222.234375 68.527344 222.714844 C 68.796875 223.195312 69.046875 223.6875 69.273438 224.199219 C 69.503906 224.707031 69.710938 225.226562 69.894531 225.761719 C 70.078125 226.292969 70.242188 226.835938 70.382812 227.390625 C 70.523438 227.941406 70.640625 228.5 70.738281 229.066406 C 70.832031 229.632812 70.902344 230.203125 70.949219 230.777344 C 70.996094 231.351562 71.019531 231.929688 71.019531 232.507812 Z M 71.019531 232.507812 "/><path style=" stroke:none;fill-rule:nonzero;fill:#231f20;fill-opacity:1;" d="M 66.609375 232.507812 C 66.609375 233.308594 66.542969 234.105469 66.410156 234.894531 C 66.277344 235.683594 66.078125 236.449219 65.816406 237.195312 C 65.558594 237.9375 65.238281 238.644531 64.859375 239.3125 C 64.480469 239.980469 64.046875 240.597656 63.566406 241.167969 C 63.085938 241.738281 62.558594 242.246094 61.992188 242.691406 C 61.425781 243.136719 60.828125 243.515625 60.199219 243.824219 C 59.566406 244.132812 58.917969 244.363281 58.25 244.519531 C 57.582031 244.675781 56.90625 244.753906 56.222656 244.753906 C 55.542969 244.753906 54.867188 244.675781 54.199219 244.519531 C 53.53125 244.363281 52.878906 244.132812 52.25 243.824219 C 51.621094 243.515625 51.023438 243.136719 50.453125 242.691406 C 49.886719 242.246094 49.363281 241.738281 48.882812 241.167969 C 48.398438 240.597656 47.96875 239.980469 47.589844 239.3125 C 47.210938 238.644531 46.890625 237.9375 46.628906 237.195312 C 46.371094 236.449219 46.171875 235.683594 46.039062 234.894531 C 45.90625 234.105469 45.839844 233.308594 45.839844 232.507812 C 45.839844 231.703125 45.90625 230.90625 46.039062 230.117188 C 46.171875 229.328125 46.371094 228.5625 46.628906 227.816406 C 46.890625 227.074219 47.210938 226.371094 47.589844 225.699219 C 47.96875 225.03125 48.398438 224.414062 48.882812 223.84375 C 49.363281 223.277344 49.886719 222.769531 50.453125 222.320312 C 51.023438 221.875 51.621094 221.496094 52.25 221.1875 C 52.878906 220.882812 53.53125 220.648438 54.199219 220.492188 C 54.867188 220.335938 55.542969 220.257812 56.222656 220.257812 C 56.90625 220.257812 57.582031 220.335938 58.25 220.492188 C 58.917969 220.648438 59.566406 220.882812 60.199219 221.1875 C 60.828125 221.496094 61.425781 221.875 61.992188 222.320312 C 62.558594 222.769531 63.085938 223.277344 63.566406 223.84375 C 64.046875 224.414062 64.480469 225.03125 64.859375 225.699219 C 65.238281 226.371094 65.554688 227.074219 65.816406 227.816406 C 66.078125 228.5625 66.277344 229.328125 66.410156 230.117188 C 66.542969 230.90625 66.609375 231.703125 66.609375 232.507812 Z M 66.609375 232.507812 "/><path style=" stroke:none;fill-rule:nonzero;fill:#d8ebf6;fill-opacity:1;" d="M 59.496094 240.027344 C 59.496094 240.554688 59.410156 241.058594 59.246094 241.542969 C 59.078125 242.027344 58.84375 242.453125 58.535156 242.824219 C 58.230469 243.195312 57.875 243.480469 57.476562 243.679688 C 57.074219 243.882812 56.65625 243.980469 56.222656 243.980469 C 55.789062 243.980469 55.375 243.882812 54.972656 243.679688 C 54.570312 243.480469 54.21875 243.195312 53.910156 242.824219 C 53.605469 242.453125 53.367188 242.027344 53.203125 241.542969 C 53.035156 241.058594 52.953125 240.554688 52.953125 240.027344 C 52.953125 239.503906 53.035156 239 53.203125 238.515625 C 53.367188 238.03125 53.605469 237.605469 53.910156 237.234375 C 54.21875 236.863281 54.570312 236.578125 54.972656 236.378906 C 55.375 236.175781 55.789062 236.078125 56.222656 236.078125 C 56.65625 236.078125 57.074219 236.175781 57.476562 236.378906 C 57.875 236.578125 58.230469 236.863281 58.535156 237.234375 C 58.84375 237.605469 59.078125 238.03125 59.246094 238.515625 C 59.410156 239 59.496094 239.503906 59.496094 240.027344 Z M 59.496094 240.027344 "/><path style=" stroke:none;fill-rule:nonzero;fill:#d8ebf6;fill-opacity:1;" d="M 58.945312 243.527344 C 59.839844 242.539062 60.28125 241.378906 60.265625 240.046875 C 60.265625 237.445312 58.453125 235.324219 56.222656 235.324219 C 53.996094 235.324219 52.183594 237.445312 52.183594 240.046875 C 52.167969 241.378906 52.605469 242.539062 53.5 243.527344 C 49.519531 242.105469 46.609375 237.707031 46.609375 232.507812 C 46.609375 226.175781 50.921875 221.027344 56.222656 221.027344 C 61.527344 221.027344 65.839844 226.175781 65.839844 232.507812 C 65.839844 237.707031 62.925781 242.105469 58.945312 243.527344 Z M 58.945312 243.527344 "/><path style=" stroke:none;fill-rule:nonzero;fill:#231f20;fill-opacity:1;" d="M 56.238281 257.605469 C 56.546875 257.605469 56.839844 257.546875 57.121094 257.429688 C 57.402344 257.3125 57.648438 257.148438 57.867188 256.929688 C 58.082031 256.714844 58.246094 256.464844 58.363281 256.183594 C 58.480469 255.902344 58.539062 255.609375 58.539062 255.304688 C 58.539062 255 58.480469 254.707031 58.363281 254.421875 C 58.246094 254.140625 58.078125 253.894531 57.863281 253.679688 C 57.648438 253.460938 57.398438 253.296875 57.117188 253.179688 C 56.835938 253.0625 56.539062 253.003906 56.234375 253.003906 C 55.929688 253.003906 55.636719 253.0625 55.355469 253.179688 C 55.074219 253.296875 54.824219 253.464844 54.609375 253.679688 C 54.394531 253.894531 54.226562 254.144531 54.109375 254.425781 C 53.996094 254.707031 53.9375 255 53.9375 255.304688 C 53.9375 255.609375 53.996094 255.90625 54.113281 256.1875 C 54.230469 256.46875 54.394531 256.71875 54.613281 256.933594 C 54.828125 257.148438 55.078125 257.316406 55.359375 257.433594 C 55.640625 257.546875 55.933594 257.605469 56.238281 257.605469 Z M 56.238281 257.605469 "/><path style=" stroke:none;fill-rule:nonzero;fill:#d8ebf6;fill-opacity:1;" d="M 56.238281 253.765625 C 56.441406 253.765625 56.640625 253.804688 56.828125 253.882812 C 57.015625 253.960938 57.179688 254.070312 57.324219 254.214844 C 57.46875 254.359375 57.578125 254.523438 57.65625 254.714844 C 57.734375 254.902344 57.773438 255.097656 57.773438 255.300781 C 57.773438 255.503906 57.734375 255.699219 57.65625 255.886719 C 57.578125 256.074219 57.46875 256.238281 57.324219 256.382812 C 57.179688 256.527344 57.015625 256.636719 56.828125 256.714844 C 56.640625 256.792969 56.441406 256.832031 56.238281 256.832031 C 56.035156 256.832031 55.839844 256.792969 55.652344 256.714844 C 55.464844 256.636719 55.300781 256.527344 55.15625 256.382812 C 55.011719 256.238281 54.902344 256.074219 54.824219 255.886719 C 54.746094 255.699219 54.707031 255.503906 54.707031 255.300781 C 54.707031 255.097656 54.746094 254.902344 54.824219 254.714844 C 54.902344 254.523438 55.011719 254.359375 55.15625 254.214844 C 55.300781 254.070312 55.464844 253.960938 55.652344 253.882812 C 55.839844 253.804688 56.035156 253.765625 56.238281 253.765625 Z M 56.238281 253.765625 "/><path style=" stroke:none;fill-rule:nonzero;fill:#231f20;fill-opacity:1;" d="M 92.359375 258.582031 L 101.511719 258.582031 C 101.746094 258.582031 101.972656 258.539062 102.191406 258.449219 C 102.410156 258.355469 102.601562 258.226562 102.769531 258.0625 C 102.933594 257.894531 103.0625 257.703125 103.152344 257.484375 C 103.246094 257.265625 103.289062 257.039062 103.289062 256.804688 C 103.289062 256.566406 103.246094 256.339844 103.152344 256.121094 C 103.0625 255.90625 102.933594 255.710938 102.769531 255.546875 C 102.601562 255.378906 102.410156 255.25 102.191406 255.160156 C 101.972656 255.070312 101.746094 255.023438 101.511719 255.023438 L 99.394531 255.023438 L 99.394531 245.796875 C 99.667969 245.613281 99.921875 245.402344 100.148438 245.164062 C 100.378906 244.925781 100.578125 244.667969 100.75 244.386719 C 100.921875 244.105469 101.0625 243.808594 101.171875 243.496094 C 101.28125 243.1875 101.355469 242.867188 101.398438 242.539062 C 101.4375 242.210938 101.445312 241.886719 101.414062 241.554688 C 101.382812 241.226562 101.320312 240.90625 101.21875 240.59375 C 101.121094 240.277344 100.988281 239.976562 100.824219 239.691406 C 100.664062 239.40625 100.46875 239.140625 100.25 238.894531 C 100.027344 238.648438 99.785156 238.429688 99.515625 238.238281 C 99.25 238.046875 98.964844 237.882812 98.660156 237.753906 C 98.359375 237.621094 98.046875 237.523438 97.722656 237.460938 C 97.398438 237.394531 97.070312 237.367188 96.742188 237.375 C 96.414062 237.378906 96.085938 237.421875 95.765625 237.496094 C 95.445312 237.574219 95.136719 237.683594 94.839844 237.828125 C 94.542969 237.96875 94.261719 238.140625 94.003906 238.34375 C 93.742188 238.546875 93.507812 238.773438 93.296875 239.027344 C 93.085938 239.28125 92.902344 239.554688 92.75 239.847656 C 92.597656 240.140625 92.480469 240.445312 92.390625 240.761719 C 92.304688 241.082031 92.253906 241.402344 92.234375 241.734375 C 92.21875 242.0625 92.238281 242.390625 92.289062 242.714844 C 92.34375 243.039062 92.429688 243.355469 92.550781 243.664062 C 92.671875 243.96875 92.824219 244.261719 93.007812 244.535156 C 93.191406 244.808594 93.402344 245.058594 93.640625 245.289062 C 93.875 245.519531 94.136719 245.71875 94.414062 245.890625 L 94.414062 255.023438 L 92.359375 255.023438 C 92.121094 255.023438 91.894531 255.070312 91.675781 255.160156 C 91.460938 255.25 91.265625 255.378906 91.101562 255.546875 C 90.933594 255.710938 90.804688 255.90625 90.714844 256.121094 C 90.625 256.339844 90.578125 256.566406 90.578125 256.804688 C 90.578125 257.039062 90.625 257.265625 90.714844 257.484375 C 90.804688 257.703125 90.933594 257.894531 91.101562 258.0625 C 91.265625 258.226562 91.460938 258.355469 91.675781 258.449219 C 91.894531 258.539062 92.121094 258.582031 92.359375 258.582031 Z M 92.359375 258.582031 "/><path style=" stroke:none;fill-rule:nonzero;fill:#d8ebf6;fill-opacity:1;" d="M 101.511719 255.792969 C 101.777344 255.808594 102.003906 255.914062 102.1875 256.105469 C 102.371094 256.300781 102.464844 256.535156 102.464844 256.800781 C 102.464844 257.070312 102.371094 257.300781 102.1875 257.496094 C 102.003906 257.691406 101.777344 257.796875 101.511719 257.8125 L 96.933594 257.8125 C 97.222656 257.808594 97.5 257.757812 97.769531 257.65625 C 98.039062 257.558594 98.28125 257.417969 98.503906 257.234375 C 98.722656 257.046875 98.90625 256.832031 99.050781 256.585938 C 99.195312 256.339844 99.296875 256.074219 99.351562 255.792969 Z M 101.511719 255.792969 "/><path style=" stroke:none;fill-rule:nonzero;fill:#d8ebf6;fill-opacity:1;" d="M 96.90625 257.042969 C 96.679688 257.042969 96.457031 257 96.25 256.910156 C 96.039062 256.824219 95.851562 256.699219 95.691406 256.539062 C 95.53125 256.378906 95.40625 256.191406 95.320312 255.980469 C 95.230469 255.773438 95.1875 255.554688 95.1875 255.324219 L 95.1875 246.273438 C 96.339844 246.71875 97.484375 246.699219 98.625 246.214844 L 98.625 255.324219 C 98.625 255.554688 98.578125 255.773438 98.492188 255.980469 C 98.40625 256.191406 98.28125 256.378906 98.121094 256.539062 C 97.957031 256.699219 97.773438 256.824219 97.5625 256.910156 C 97.351562 257 97.132812 257.042969 96.90625 257.042969 Z M 96.90625 257.042969 "/><path style=" stroke:none;fill-rule:nonzero;fill:#d8ebf6;fill-opacity:1;" d="M 100.648438 241.984375 C 100.648438 242.492188 100.550781 242.980469 100.359375 243.449219 C 100.164062 243.917969 99.886719 244.328125 99.53125 244.6875 C 99.171875 245.046875 98.757812 245.324219 98.289062 245.515625 C 97.820312 245.710938 97.332031 245.808594 96.824219 245.808594 C 96.320312 245.808594 95.832031 245.710938 95.363281 245.515625 C 94.894531 245.324219 94.480469 245.046875 94.121094 244.6875 C 93.761719 244.328125 93.488281 243.917969 93.292969 243.449219 C 93.097656 242.980469 93 242.492188 93 241.984375 C 93 241.476562 93.097656 240.988281 93.292969 240.519531 C 93.488281 240.050781 93.761719 239.640625 94.121094 239.28125 C 94.480469 238.921875 94.894531 238.644531 95.363281 238.453125 C 95.832031 238.257812 96.320312 238.160156 96.824219 238.160156 C 97.332031 238.160156 97.820312 238.257812 98.289062 238.453125 C 98.757812 238.644531 99.171875 238.921875 99.53125 239.28125 C 99.886719 239.640625 100.164062 240.050781 100.359375 240.519531 C 100.550781 240.988281 100.648438 241.476562 100.648438 241.984375 Z M 100.648438 241.984375 "/><path style=" stroke:none;fill-rule:nonzero;fill:#d8ebf6;fill-opacity:1;" d="M 92.359375 255.792969 L 94.460938 255.792969 C 94.515625 256.074219 94.613281 256.339844 94.761719 256.585938 C 94.90625 256.832031 95.089844 257.046875 95.308594 257.234375 C 95.527344 257.417969 95.773438 257.558594 96.042969 257.65625 C 96.3125 257.757812 96.589844 257.808594 96.875 257.8125 L 92.359375 257.8125 C 92.089844 257.796875 91.863281 257.691406 91.679688 257.496094 C 91.496094 257.300781 91.402344 257.070312 91.402344 256.800781 C 91.402344 256.535156 91.496094 256.300781 91.679688 256.105469 C 91.863281 255.914062 92.089844 255.808594 92.359375 255.792969 Z M 92.359375 255.792969 "/><path style=" stroke:none;fill-rule:nonzero;fill:#231f20;fill-opacity:1;" d="M 95.484375 239.46875 C 95.347656 239.453125 95.210938 239.464844 95.074219 239.503906 C 94.941406 239.542969 94.820312 239.605469 94.710938 239.695312 C 94.601562 239.78125 94.515625 239.886719 94.449219 240.007812 C 94.382812 240.132812 94.339844 240.261719 94.324219 240.398438 C 94.308594 240.539062 94.324219 240.675781 94.363281 240.808594 C 94.402344 240.941406 94.464844 241.0625 94.550781 241.171875 C 94.640625 241.28125 94.742188 241.371094 94.867188 241.4375 C 94.988281 241.503906 95.117188 241.542969 95.257812 241.558594 C 95.296875 241.5625 95.335938 241.5625 95.371094 241.558594 C 95.617188 241.558594 95.835938 241.484375 96.027344 241.328125 C 96.195312 241.195312 96.3125 241.027344 96.375 240.824219 C 96.441406 240.621094 96.441406 240.417969 96.382812 240.214844 C 96.324219 240.007812 96.210938 239.835938 96.046875 239.699219 C 95.882812 239.5625 95.695312 239.484375 95.484375 239.460938 Z M 95.484375 239.46875 "/><path style=" stroke:none;fill-rule:nonzero;fill:#d8ebf6;fill-opacity:1;" d="M 95.921875 240.574219 C 95.902344 240.722656 95.839844 240.84375 95.722656 240.933594 C 95.605469 241.027344 95.472656 241.066406 95.324219 241.050781 C 95.175781 241.035156 95.054688 240.96875 94.960938 240.851562 C 94.871094 240.734375 94.832031 240.601562 94.847656 240.453125 C 94.863281 240.308594 94.929688 240.1875 95.046875 240.09375 C 95.144531 240.015625 95.257812 239.976562 95.382812 239.976562 L 95.441406 239.976562 C 95.589844 239.992188 95.710938 240.058594 95.804688 240.171875 C 95.898438 240.289062 95.9375 240.421875 95.921875 240.570312 Z M 95.921875 240.574219 "/><path style=" stroke:none;fill-rule:nonzero;fill:#231f20;fill-opacity:1;" d="M 98.097656 241.558594 C 98.136719 241.5625 98.179688 241.5625 98.21875 241.558594 C 98.65625 241.558594 98.972656 241.359375 99.164062 240.960938 C 99.351562 240.5625 99.3125 240.195312 99.035156 239.851562 C 98.949219 239.742188 98.84375 239.652344 98.722656 239.585938 C 98.597656 239.519531 98.46875 239.476562 98.328125 239.460938 C 98.191406 239.445312 98.054688 239.457031 97.921875 239.496094 C 97.785156 239.535156 97.664062 239.601562 97.554688 239.6875 C 97.328125 239.871094 97.199219 240.105469 97.167969 240.394531 C 97.136719 240.683594 97.210938 240.941406 97.394531 241.164062 C 97.574219 241.394531 97.808594 241.527344 98.097656 241.558594 Z M 98.097656 241.558594 "/><path style=" stroke:none;fill-rule:nonzero;fill:#d8ebf6;fill-opacity:1;" d="M 97.679688 240.453125 C 97.695312 240.308594 97.761719 240.1875 97.878906 240.09375 C 97.972656 240.019531 98.078125 239.980469 98.199219 239.976562 L 98.257812 239.976562 C 98.402344 239.992188 98.523438 240.058594 98.617188 240.171875 C 98.714844 240.289062 98.75 240.421875 98.734375 240.570312 C 98.71875 240.71875 98.652344 240.839844 98.535156 240.929688 C 98.417969 241.023438 98.289062 241.0625 98.140625 241.046875 C 97.992188 241.03125 97.871094 240.964844 97.777344 240.847656 C 97.683594 240.730469 97.648438 240.601562 97.664062 240.453125 Z M 97.679688 240.453125 "/><path style=" stroke:none;fill-rule:nonzero;fill:#231f20;fill-opacity:1;" d="M 95.484375 242.246094 C 95.347656 242.230469 95.210938 242.242188 95.078125 242.28125 C 94.941406 242.320312 94.820312 242.386719 94.710938 242.472656 C 94.605469 242.558594 94.515625 242.664062 94.449219 242.785156 C 94.382812 242.910156 94.339844 243.039062 94.328125 243.179688 C 94.3125 243.316406 94.324219 243.453125 94.363281 243.585938 C 94.402344 243.71875 94.464844 243.839844 94.550781 243.949219 C 94.640625 244.058594 94.746094 244.144531 94.867188 244.214844 C 94.988281 244.28125 95.117188 244.320312 95.257812 244.335938 C 95.296875 244.339844 95.335938 244.339844 95.371094 244.335938 C 95.640625 244.335938 95.875 244.246094 96.074219 244.066406 C 96.273438 243.886719 96.386719 243.664062 96.414062 243.398438 C 96.429688 243.261719 96.417969 243.125 96.378906 242.988281 C 96.339844 242.855469 96.277344 242.734375 96.191406 242.625 C 96.101562 242.519531 96 242.429688 95.875 242.363281 C 95.753906 242.296875 95.625 242.253906 95.484375 242.242188 Z M 95.484375 242.246094 "/><path style=" stroke:none;fill-rule:nonzero;fill:#d8ebf6;fill-opacity:1;" d="M 95.921875 243.363281 C 95.902344 243.511719 95.835938 243.632812 95.722656 243.726562 C 95.652344 243.78125 95.578125 243.816406 95.488281 243.835938 C 95.402344 243.851562 95.320312 243.851562 95.234375 243.828125 C 95.148438 243.804688 95.074219 243.761719 95.011719 243.699219 C 94.945312 243.640625 94.898438 243.570312 94.871094 243.484375 C 94.839844 243.402344 94.832031 243.316406 94.84375 243.230469 C 94.855469 243.144531 94.886719 243.0625 94.9375 242.992188 C 94.988281 242.921875 95.054688 242.863281 95.132812 242.824219 C 95.210938 242.785156 95.292969 242.765625 95.382812 242.765625 L 95.441406 242.765625 C 95.589844 242.78125 95.710938 242.847656 95.804688 242.964844 C 95.898438 243.078125 95.9375 243.210938 95.921875 243.359375 Z M 95.921875 243.363281 "/><path style=" stroke:none;fill-rule:nonzero;fill:#231f20;fill-opacity:1;" d="M 98.097656 244.347656 C 98.136719 244.351562 98.179688 244.351562 98.21875 244.347656 C 98.457031 244.34375 98.671875 244.269531 98.859375 244.117188 C 98.964844 244.03125 99.054688 243.925781 99.121094 243.804688 C 99.1875 243.683594 99.230469 243.550781 99.246094 243.414062 C 99.261719 243.273438 99.25 243.136719 99.210938 243.003906 C 99.171875 242.871094 99.109375 242.75 99.019531 242.640625 C 98.933594 242.53125 98.828125 242.445312 98.707031 242.375 C 98.582031 242.308594 98.453125 242.269531 98.3125 242.253906 C 98.175781 242.238281 98.039062 242.25 97.902344 242.289062 C 97.769531 242.328125 97.648438 242.390625 97.539062 242.476562 C 97.429688 242.566406 97.34375 242.667969 97.273438 242.792969 C 97.207031 242.914062 97.167969 243.042969 97.152344 243.183594 C 97.136719 243.320312 97.148438 243.457031 97.1875 243.59375 C 97.226562 243.726562 97.292969 243.847656 97.378906 243.957031 C 97.5625 244.191406 97.800781 244.320312 98.097656 244.347656 Z M 98.097656 244.347656 "/><path style=" stroke:none;fill-rule:nonzero;fill:#d8ebf6;fill-opacity:1;" d="M 97.679688 243.246094 C 97.695312 243.109375 97.753906 242.996094 97.855469 242.902344 C 97.957031 242.8125 98.078125 242.765625 98.214844 242.765625 L 98.273438 242.765625 C 98.421875 242.78125 98.539062 242.847656 98.632812 242.964844 C 98.730469 243.078125 98.765625 243.210938 98.75 243.359375 C 98.730469 243.507812 98.664062 243.628906 98.550781 243.722656 C 98.4375 243.820312 98.308594 243.859375 98.160156 243.847656 C 98.011719 243.832031 97.890625 243.765625 97.796875 243.648438 C 97.703125 243.53125 97.667969 243.398438 97.683594 243.25 Z M 97.679688 243.246094 "/><path style=" stroke:none;fill-rule:nonzero;fill:#231f20;fill-opacity:1;" d="M 255.144531 150.511719 L 187.761719 150.511719 C 187.277344 150.511719 186.816406 150.605469 186.371094 150.789062 C 185.925781 150.972656 185.535156 151.234375 185.195312 151.574219 C 184.851562 151.917969 184.589844 152.308594 184.40625 152.753906 C 184.222656 153.195312 184.128906 153.660156 184.128906 154.140625 L 184.128906 254.984375 C 184.128906 255.464844 184.222656 255.925781 184.40625 256.371094 C 184.589844 256.816406 184.851562 257.210938 185.191406 257.550781 C 185.535156 257.890625 185.925781 258.152344 186.371094 258.335938 C 186.816406 258.523438 187.277344 258.613281 187.761719 258.613281 L 255.144531 258.613281 C 255.625 258.613281 256.089844 258.523438 256.535156 258.335938 C 256.980469 258.152344 257.371094 257.890625 257.710938 257.550781 C 258.050781 257.210938 258.3125 256.816406 258.5 256.371094 C 258.683594 255.925781 258.773438 255.464844 258.773438 254.984375 L 258.773438 154.140625 C 258.773438 153.660156 258.679688 153.199219 258.496094 152.753906 C 258.3125 152.308594 258.050781 151.917969 257.710938 151.578125 C 257.371094 151.234375 256.976562 150.972656 256.535156 150.789062 C 256.089844 150.605469 255.625 150.511719 255.144531 150.511719 Z M 255.144531 150.511719 "/><path style=" stroke:none;fill-rule:nonzero;fill:#d8ebf6;fill-opacity:1;" d="M 258.007812 254.984375 C 258.003906 255.363281 257.929688 255.726562 257.785156 256.074219 C 257.636719 256.425781 257.429688 256.730469 257.164062 257 C 256.894531 257.269531 256.585938 257.476562 256.238281 257.621094 C 255.886719 257.765625 255.523438 257.839844 255.144531 257.84375 L 187.761719 257.84375 C 187.382812 257.839844 187.015625 257.765625 186.667969 257.621094 C 186.320312 257.476562 186.011719 257.269531 185.742188 257 C 185.476562 256.734375 185.269531 256.425781 185.121094 256.074219 C 184.976562 255.726562 184.902344 255.363281 184.898438 254.984375 L 184.898438 233.03125 L 258.007812 233.03125 Z M 258.007812 254.984375 "/><g mask="url(#6464df5595)" transform="matrix(1,0,0,1,184,216)"><g clip-path="url(#0896d4b000)"><g clip-rule="nonzero" clip-path="url(#87e88c6fb5)"><path style=" stroke:none;fill-rule:nonzero;fill:#b11327;fill-opacity:1;" d="M 1.042969 16.261719 L 6 1.132812 C 7.441406 2.1875 12.398438 5.542969 21.679688 8.933594 C 33.242188 13.15625 45.648438 15.273438 56.726562 16.261719 Z M 1.042969 16.261719 "/></g></g><mask id="6464df5595"><g filter="url(#0f42d069c9)"><rect x="0" width="300" y="0" height="299.999988" style="fill:#000000;fill-opacity:0.85;stroke:none;"/></g></mask></g><path style=" stroke:none;fill-rule:nonzero;fill:#b11327;fill-opacity:1;" d="M 258.007812 232.257812 C 233.121094 232.214844 215.992188 227.871094 205.992188 224.226562 C 195.109375 220.257812 190.082031 216.226562 190.035156 216.199219 L 189.601562 215.84375 L 184.894531 230.242188 L 184.894531 154.140625 C 184.898438 153.761719 184.972656 153.398438 185.117188 153.050781 C 185.265625 152.699219 185.472656 152.390625 185.738281 152.125 C 186.007812 151.855469 186.316406 151.648438 186.664062 151.503906 C 187.015625 151.355469 187.378906 151.28125 187.757812 151.28125 L 255.144531 151.28125 C 255.523438 151.28125 255.886719 151.355469 256.238281 151.503906 C 256.585938 151.648438 256.894531 151.855469 257.164062 152.125 C 257.429688 152.390625 257.636719 152.699219 257.785156 153.050781 C 257.929688 153.398438 258.003906 153.761719 258.007812 154.140625 Z M 258.007812 232.257812 "/><path style=" stroke:none;fill-rule:nonzero;fill:#231f20;fill-opacity:1;" d="M 211.410156 235.902344 L 231.488281 235.902344 C 231.875 235.902344 232.246094 235.976562 232.605469 236.125 C 232.960938 236.269531 233.277344 236.480469 233.550781 236.753906 C 233.824219 237.027344 234.035156 237.34375 234.179688 237.699219 C 234.328125 238.058594 234.402344 238.429688 234.402344 238.816406 L 234.402344 251.933594 C 234.402344 252.320312 234.328125 252.691406 234.179688 253.046875 C 234.035156 253.40625 233.824219 253.722656 233.550781 253.996094 C 233.277344 254.269531 232.960938 254.480469 232.605469 254.625 C 232.246094 254.773438 231.875 254.847656 231.488281 254.847656 L 211.410156 254.847656 C 211.023438 254.847656 210.652344 254.773438 210.296875 254.625 C 209.9375 254.480469 209.625 254.269531 209.351562 253.996094 C 209.078125 253.722656 208.867188 253.40625 208.71875 253.046875 C 208.570312 252.691406 208.496094 252.320312 208.496094 251.933594 L 208.496094 238.816406 C 208.496094 238.429688 208.570312 238.058594 208.71875 237.699219 C 208.867188 237.34375 209.078125 237.027344 209.351562 236.753906 C 209.625 236.480469 209.9375 236.269531 210.296875 236.125 C 210.652344 235.976562 211.023438 235.902344 211.410156 235.902344 Z M 211.410156 235.902344 "/><path style=" stroke:none;fill-rule:nonzero;fill:#b11327;fill-opacity:1;" d="M 211.410156 236.671875 L 231.492188 236.671875 C 231.777344 236.671875 232.050781 236.726562 232.3125 236.835938 C 232.574219 236.945312 232.804688 237.097656 233.007812 237.300781 C 233.207031 237.5 233.363281 237.734375 233.472656 237.996094 C 233.582031 238.257812 233.636719 238.53125 233.636719 238.816406 L 233.636719 251.9375 C 233.636719 252.222656 233.582031 252.496094 233.472656 252.757812 C 233.363281 253.019531 233.207031 253.25 233.007812 253.453125 C 232.804688 253.652344 232.574219 253.808594 232.3125 253.917969 C 232.050781 254.027344 231.777344 254.082031 231.492188 254.082031 L 211.410156 254.082031 C 211.125 254.082031 210.851562 254.027344 210.589844 253.917969 C 210.328125 253.808594 210.097656 253.652344 209.894531 253.453125 C 209.695312 253.25 209.539062 253.019531 209.429688 252.757812 C 209.320312 252.496094 209.265625 252.222656 209.265625 251.9375 L 209.265625 238.816406 C 209.265625 238.53125 209.320312 238.257812 209.429688 237.996094 C 209.539062 237.734375 209.695312 237.5 209.894531 237.300781 C 210.097656 237.097656 210.328125 236.945312 210.589844 236.835938 C 210.851562 236.726562 211.125 236.671875 211.410156 236.671875 Z M 211.410156 236.671875 "/><path style=" stroke:none;fill-rule:nonzero;fill:#d8ebf6;fill-opacity:1;" d="M 180.089844 39.726562 L 239.570312 39.726562 L 239.570312 45.019531 L 180.089844 45.019531 Z M 180.089844 39.726562 "/><path style=" stroke:none;fill-rule:nonzero;fill:#d8ebf6;fill-opacity:1;" d="M 42.742188 39.863281 L 82.566406 39.863281 L 82.566406 45.019531 L 42.742188 45.019531 Z M 42.742188 39.863281 "/><path style=" stroke:none;fill-rule:nonzero;fill:#231f20;fill-opacity:1;" d="M 179.445312 49.878906 L 258.773438 49.878906 L 258.773438 91.570312 L 179.445312 91.570312 Z M 179.445312 49.878906 "/><path style=" stroke:none;fill-rule:nonzero;fill:#231f20;fill-opacity:1;" d="M 180.21875 50.648438 L 258.007812 50.648438 L 258.007812 90.796875 L 180.21875 90.796875 Z M 180.21875 50.648438 "/><path style=" stroke:none;fill-rule:nonzero;fill:#231f20;fill-opacity:1;" d="M 210.5 97.179688 L 224.136719 97.179688 C 224.589844 97.179688 225.039062 97.222656 225.484375 97.3125 C 225.929688 97.398438 226.363281 97.53125 226.78125 97.703125 C 227.199219 97.878906 227.597656 98.089844 227.976562 98.34375 C 228.351562 98.59375 228.703125 98.878906 229.023438 99.203125 C 229.34375 99.523438 229.628906 99.871094 229.882812 100.25 C 230.132812 100.625 230.347656 101.023438 230.519531 101.441406 C 230.695312 101.863281 230.824219 102.292969 230.914062 102.738281 C 231.003906 103.183594 231.046875 103.632812 231.046875 104.085938 L 231.046875 111.160156 C 231.046875 111.617188 231.003906 112.066406 230.914062 112.511719 C 230.824219 112.953125 230.695312 113.386719 230.519531 113.804688 C 230.347656 114.226562 230.132812 114.625 229.882812 115 C 229.628906 115.378906 229.34375 115.726562 229.023438 116.046875 C 228.703125 116.367188 228.351562 116.65625 227.976562 116.90625 C 227.597656 117.160156 227.199219 117.371094 226.78125 117.542969 C 226.363281 117.71875 225.929688 117.847656 225.484375 117.9375 C 225.039062 118.027344 224.589844 118.070312 224.136719 118.070312 L 210.5 118.070312 C 210.046875 118.070312 209.597656 118.027344 209.152344 117.9375 C 208.707031 117.847656 208.273438 117.71875 207.855469 117.542969 C 207.4375 117.371094 207.039062 117.160156 206.660156 116.90625 C 206.285156 116.65625 205.933594 116.367188 205.613281 116.046875 C 205.292969 115.726562 205.007812 115.378906 204.753906 115 C 204.503906 114.625 204.289062 114.226562 204.117188 113.804688 C 203.941406 113.386719 203.8125 112.953125 203.722656 112.511719 C 203.632812 112.066406 203.589844 111.617188 203.589844 111.160156 L 203.589844 104.085938 C 203.589844 103.632812 203.632812 103.183594 203.722656 102.738281 C 203.8125 102.292969 203.941406 101.863281 204.117188 101.441406 C 204.289062 101.023438 204.503906 100.625 204.753906 100.25 C 205.007812 99.871094 205.292969 99.523438 205.613281 99.203125 C 205.933594 98.878906 206.285156 98.59375 206.660156 98.34375 C 207.039062 98.089844 207.4375 97.878906 207.855469 97.703125 C 208.273438 97.53125 208.707031 97.398438 209.152344 97.3125 C 209.597656 97.222656 210.046875 97.179688 210.5 97.179688 Z M 210.5 97.179688 "/><g mask="url(#34285cb548)" transform="matrix(1,0,0,1,204,97)"><g clip-path="url(#bd5904ddce)"><g clip-rule="nonzero" clip-path="url(#25f22f7d0e)"><path style=" stroke:none;fill-rule:nonzero;fill:#231f20;fill-opacity:1;" d="M 6.5 0.949219 L 20.136719 0.949219 C 20.539062 0.949219 20.941406 0.988281 21.335938 1.066406 C 21.730469 1.144531 22.113281 1.261719 22.484375 1.417969 C 22.859375 1.570312 23.210938 1.757812 23.546875 1.984375 C 23.882812 2.207031 24.191406 2.460938 24.476562 2.746094 C 24.761719 3.03125 25.015625 3.34375 25.242188 3.675781 C 25.464844 4.011719 25.652344 4.367188 25.808594 4.738281 C 25.960938 5.109375 26.078125 5.496094 26.15625 5.890625 C 26.234375 6.285156 26.273438 6.683594 26.273438 7.085938 L 26.273438 14.164062 C 26.273438 14.566406 26.234375 14.96875 26.15625 15.363281 C 26.078125 15.757812 25.960938 16.140625 25.808594 16.515625 C 25.652344 16.886719 25.464844 17.238281 25.242188 17.574219 C 25.015625 17.910156 24.761719 18.21875 24.476562 18.503906 C 24.191406 18.789062 23.882812 19.042969 23.546875 19.269531 C 23.210938 19.492188 22.859375 19.679688 22.484375 19.835938 C 22.113281 19.988281 21.730469 20.105469 21.335938 20.183594 C 20.941406 20.261719 20.539062 20.304688 20.136719 20.304688 L 6.5 20.304688 C 6.097656 20.304688 5.695312 20.261719 5.300781 20.183594 C 4.90625 20.105469 4.523438 19.988281 4.152344 19.835938 C 3.777344 19.679688 3.425781 19.492188 3.089844 19.269531 C 2.753906 19.042969 2.445312 18.789062 2.160156 18.503906 C 1.875 18.21875 1.621094 17.910156 1.394531 17.574219 C 1.171875 17.238281 0.984375 16.886719 0.828125 16.515625 C 0.675781 16.140625 0.558594 15.757812 0.480469 15.363281 C 0.402344 14.96875 0.363281 14.566406 0.363281 14.164062 L 0.363281 7.085938 C 0.363281 6.683594 0.402344 6.285156 0.480469 5.890625 C 0.558594 5.496094 0.675781 5.109375 0.828125 4.738281 C 0.984375 4.367188 1.171875 4.011719 1.394531 3.675781 C 1.621094 3.34375 1.875 3.03125 2.160156 2.746094 C 2.445312 2.460938 2.753906 2.207031 3.089844 1.984375 C 3.425781 1.757812 3.777344 1.570312 4.152344 1.417969 C 4.523438 1.261719 4.90625 1.144531 5.300781 1.066406 C 5.695312 0.988281 6.097656 0.949219 6.5 0.949219 Z M 6.5 0.949219 "/></g></g><mask id="34285cb548"><g filter="url(#0f42d069c9)"><rect x="0" width="300" y="0" height="299.999988" style="fill:#000000;fill-opacity:0.59;stroke:none;"/></g></mask></g></g></svg>